<?xml version="1.0" encoding="UTF-8" standalone="no"?>
<svg>
<metadata>built for 'brailleUTF8web' braille table on Sun Dec 07 11:53:15 CET 2014</metadata>
<defs>
<font horiz-adv-x="600" id="Braille-brailleUTF8web" vert-adv-y="">
<font-face ascent="620" descent="-250" font-family="Braille" font-stretch="normal" font-weight="normal" units-per-em="1024"/>
<missing-glyph/>
<glyph d="M 60 560 m -15, 0 a 15,15 0 1,1 30,0 a 15,15 0 1,1 -30,0 z M 60 310 m -15, 0 a 15,15 0 1,1 30,0 a 15,15 0 1,1 -30,0 z M 60 60 m -15, 0 a 15,15 0 1,1 30,0 a 15,15 0 1,1 -30,0 z M 310 560 m -15, 0 a 15,15 0 1,1 30,0 a 15,15 0 1,1 -30,0 z M 310 310 m -15, 0 a 15,15 0 1,1 30,0 a 15,15 0 1,1 -30,0 z M 310 60 m -15, 0 a 15,15 0 1,1 30,0 a 15,15 0 1,1 -30,0 z " horiz-adv-x="600" unicode=" "/>
<glyph d="M 60 560 m -60, 0 a 60,60 0 1,1 120,0 a 60,60 0 1,1 -120,0 z M 60 310 m -15, 0 a 15,15 0 1,1 30,0 a 15,15 0 1,1 -30,0 z M 60 60 m -15, 0 a 15,15 0 1,1 30,0 a 15,15 0 1,1 -30,0 z M 310 560 m -15, 0 a 15,15 0 1,1 30,0 a 15,15 0 1,1 -30,0 z M 310 310 m -15, 0 a 15,15 0 1,1 30,0 a 15,15 0 1,1 -30,0 z M 310 60 m -15, 0 a 15,15 0 1,1 30,0 a 15,15 0 1,1 -30,0 z " horiz-adv-x="600" unicode="⠁"/>
<glyph d="M 60 560 m -15, 0 a 15,15 0 1,1 30,0 a 15,15 0 1,1 -30,0 z M 60 310 m -60, 0 a 60,60 0 1,1 120,0 a 60,60 0 1,1 -120,0 z M 60 60 m -15, 0 a 15,15 0 1,1 30,0 a 15,15 0 1,1 -30,0 z M 310 560 m -15, 0 a 15,15 0 1,1 30,0 a 15,15 0 1,1 -30,0 z M 310 310 m -15, 0 a 15,15 0 1,1 30,0 a 15,15 0 1,1 -30,0 z M 310 60 m -15, 0 a 15,15 0 1,1 30,0 a 15,15 0 1,1 -30,0 z " horiz-adv-x="600" unicode="⠂"/>
<glyph d="M 60 560 m -60, 0 a 60,60 0 1,1 120,0 a 60,60 0 1,1 -120,0 z M 60 310 m -60, 0 a 60,60 0 1,1 120,0 a 60,60 0 1,1 -120,0 z M 60 60 m -15, 0 a 15,15 0 1,1 30,0 a 15,15 0 1,1 -30,0 z M 310 560 m -15, 0 a 15,15 0 1,1 30,0 a 15,15 0 1,1 -30,0 z M 310 310 m -15, 0 a 15,15 0 1,1 30,0 a 15,15 0 1,1 -30,0 z M 310 60 m -15, 0 a 15,15 0 1,1 30,0 a 15,15 0 1,1 -30,0 z " horiz-adv-x="600" unicode="⠃"/>
<glyph d="M 60 560 m -15, 0 a 15,15 0 1,1 30,0 a 15,15 0 1,1 -30,0 z M 60 310 m -15, 0 a 15,15 0 1,1 30,0 a 15,15 0 1,1 -30,0 z M 60 60 m -60, 0 a 60,60 0 1,1 120,0 a 60,60 0 1,1 -120,0 z M 310 560 m -15, 0 a 15,15 0 1,1 30,0 a 15,15 0 1,1 -30,0 z M 310 310 m -15, 0 a 15,15 0 1,1 30,0 a 15,15 0 1,1 -30,0 z M 310 60 m -15, 0 a 15,15 0 1,1 30,0 a 15,15 0 1,1 -30,0 z " horiz-adv-x="600" unicode="⠄"/>
<glyph d="M 60 560 m -60, 0 a 60,60 0 1,1 120,0 a 60,60 0 1,1 -120,0 z M 60 310 m -15, 0 a 15,15 0 1,1 30,0 a 15,15 0 1,1 -30,0 z M 60 60 m -60, 0 a 60,60 0 1,1 120,0 a 60,60 0 1,1 -120,0 z M 310 560 m -15, 0 a 15,15 0 1,1 30,0 a 15,15 0 1,1 -30,0 z M 310 310 m -15, 0 a 15,15 0 1,1 30,0 a 15,15 0 1,1 -30,0 z M 310 60 m -15, 0 a 15,15 0 1,1 30,0 a 15,15 0 1,1 -30,0 z " horiz-adv-x="600" unicode="⠅"/>
<glyph d="M 60 560 m -15, 0 a 15,15 0 1,1 30,0 a 15,15 0 1,1 -30,0 z M 60 310 m -60, 0 a 60,60 0 1,1 120,0 a 60,60 0 1,1 -120,0 z M 60 60 m -60, 0 a 60,60 0 1,1 120,0 a 60,60 0 1,1 -120,0 z M 310 560 m -15, 0 a 15,15 0 1,1 30,0 a 15,15 0 1,1 -30,0 z M 310 310 m -15, 0 a 15,15 0 1,1 30,0 a 15,15 0 1,1 -30,0 z M 310 60 m -15, 0 a 15,15 0 1,1 30,0 a 15,15 0 1,1 -30,0 z " horiz-adv-x="600" unicode="⠆"/>
<glyph d="M 60 560 m -60, 0 a 60,60 0 1,1 120,0 a 60,60 0 1,1 -120,0 z M 60 310 m -60, 0 a 60,60 0 1,1 120,0 a 60,60 0 1,1 -120,0 z M 60 60 m -60, 0 a 60,60 0 1,1 120,0 a 60,60 0 1,1 -120,0 z M 310 560 m -15, 0 a 15,15 0 1,1 30,0 a 15,15 0 1,1 -30,0 z M 310 310 m -15, 0 a 15,15 0 1,1 30,0 a 15,15 0 1,1 -30,0 z M 310 60 m -15, 0 a 15,15 0 1,1 30,0 a 15,15 0 1,1 -30,0 z " horiz-adv-x="600" unicode="⠇"/>
<glyph d="M 60 560 m -15, 0 a 15,15 0 1,1 30,0 a 15,15 0 1,1 -30,0 z M 60 310 m -15, 0 a 15,15 0 1,1 30,0 a 15,15 0 1,1 -30,0 z M 60 60 m -15, 0 a 15,15 0 1,1 30,0 a 15,15 0 1,1 -30,0 z M 310 560 m -60, 0 a 60,60 0 1,1 120,0 a 60,60 0 1,1 -120,0 z M 310 310 m -15, 0 a 15,15 0 1,1 30,0 a 15,15 0 1,1 -30,0 z M 310 60 m -15, 0 a 15,15 0 1,1 30,0 a 15,15 0 1,1 -30,0 z " horiz-adv-x="600" unicode="⠈"/>
<glyph d="M 60 560 m -60, 0 a 60,60 0 1,1 120,0 a 60,60 0 1,1 -120,0 z M 60 310 m -15, 0 a 15,15 0 1,1 30,0 a 15,15 0 1,1 -30,0 z M 60 60 m -15, 0 a 15,15 0 1,1 30,0 a 15,15 0 1,1 -30,0 z M 310 560 m -60, 0 a 60,60 0 1,1 120,0 a 60,60 0 1,1 -120,0 z M 310 310 m -15, 0 a 15,15 0 1,1 30,0 a 15,15 0 1,1 -30,0 z M 310 60 m -15, 0 a 15,15 0 1,1 30,0 a 15,15 0 1,1 -30,0 z " horiz-adv-x="600" unicode="⠉"/>
<glyph d="M 60 560 m -15, 0 a 15,15 0 1,1 30,0 a 15,15 0 1,1 -30,0 z M 60 310 m -60, 0 a 60,60 0 1,1 120,0 a 60,60 0 1,1 -120,0 z M 60 60 m -15, 0 a 15,15 0 1,1 30,0 a 15,15 0 1,1 -30,0 z M 310 560 m -60, 0 a 60,60 0 1,1 120,0 a 60,60 0 1,1 -120,0 z M 310 310 m -15, 0 a 15,15 0 1,1 30,0 a 15,15 0 1,1 -30,0 z M 310 60 m -15, 0 a 15,15 0 1,1 30,0 a 15,15 0 1,1 -30,0 z " horiz-adv-x="600" unicode="⠊"/>
<glyph d="M 60 560 m -60, 0 a 60,60 0 1,1 120,0 a 60,60 0 1,1 -120,0 z M 60 310 m -60, 0 a 60,60 0 1,1 120,0 a 60,60 0 1,1 -120,0 z M 60 60 m -15, 0 a 15,15 0 1,1 30,0 a 15,15 0 1,1 -30,0 z M 310 560 m -60, 0 a 60,60 0 1,1 120,0 a 60,60 0 1,1 -120,0 z M 310 310 m -15, 0 a 15,15 0 1,1 30,0 a 15,15 0 1,1 -30,0 z M 310 60 m -15, 0 a 15,15 0 1,1 30,0 a 15,15 0 1,1 -30,0 z " horiz-adv-x="600" unicode="⠋"/>
<glyph d="M 60 560 m -15, 0 a 15,15 0 1,1 30,0 a 15,15 0 1,1 -30,0 z M 60 310 m -15, 0 a 15,15 0 1,1 30,0 a 15,15 0 1,1 -30,0 z M 60 60 m -60, 0 a 60,60 0 1,1 120,0 a 60,60 0 1,1 -120,0 z M 310 560 m -60, 0 a 60,60 0 1,1 120,0 a 60,60 0 1,1 -120,0 z M 310 310 m -15, 0 a 15,15 0 1,1 30,0 a 15,15 0 1,1 -30,0 z M 310 60 m -15, 0 a 15,15 0 1,1 30,0 a 15,15 0 1,1 -30,0 z " horiz-adv-x="600" unicode="⠌"/>
<glyph d="M 60 560 m -60, 0 a 60,60 0 1,1 120,0 a 60,60 0 1,1 -120,0 z M 60 310 m -15, 0 a 15,15 0 1,1 30,0 a 15,15 0 1,1 -30,0 z M 60 60 m -60, 0 a 60,60 0 1,1 120,0 a 60,60 0 1,1 -120,0 z M 310 560 m -60, 0 a 60,60 0 1,1 120,0 a 60,60 0 1,1 -120,0 z M 310 310 m -15, 0 a 15,15 0 1,1 30,0 a 15,15 0 1,1 -30,0 z M 310 60 m -15, 0 a 15,15 0 1,1 30,0 a 15,15 0 1,1 -30,0 z " horiz-adv-x="600" unicode="⠍"/>
<glyph d="M 60 560 m -15, 0 a 15,15 0 1,1 30,0 a 15,15 0 1,1 -30,0 z M 60 310 m -60, 0 a 60,60 0 1,1 120,0 a 60,60 0 1,1 -120,0 z M 60 60 m -60, 0 a 60,60 0 1,1 120,0 a 60,60 0 1,1 -120,0 z M 310 560 m -60, 0 a 60,60 0 1,1 120,0 a 60,60 0 1,1 -120,0 z M 310 310 m -15, 0 a 15,15 0 1,1 30,0 a 15,15 0 1,1 -30,0 z M 310 60 m -15, 0 a 15,15 0 1,1 30,0 a 15,15 0 1,1 -30,0 z " horiz-adv-x="600" unicode="⠎"/>
<glyph d="M 60 560 m -60, 0 a 60,60 0 1,1 120,0 a 60,60 0 1,1 -120,0 z M 60 310 m -60, 0 a 60,60 0 1,1 120,0 a 60,60 0 1,1 -120,0 z M 60 60 m -60, 0 a 60,60 0 1,1 120,0 a 60,60 0 1,1 -120,0 z M 310 560 m -60, 0 a 60,60 0 1,1 120,0 a 60,60 0 1,1 -120,0 z M 310 310 m -15, 0 a 15,15 0 1,1 30,0 a 15,15 0 1,1 -30,0 z M 310 60 m -15, 0 a 15,15 0 1,1 30,0 a 15,15 0 1,1 -30,0 z " horiz-adv-x="600" unicode="⠏"/>
<glyph d="M 60 560 m -15, 0 a 15,15 0 1,1 30,0 a 15,15 0 1,1 -30,0 z M 60 310 m -15, 0 a 15,15 0 1,1 30,0 a 15,15 0 1,1 -30,0 z M 60 60 m -15, 0 a 15,15 0 1,1 30,0 a 15,15 0 1,1 -30,0 z M 310 560 m -15, 0 a 15,15 0 1,1 30,0 a 15,15 0 1,1 -30,0 z M 310 310 m -60, 0 a 60,60 0 1,1 120,0 a 60,60 0 1,1 -120,0 z M 310 60 m -15, 0 a 15,15 0 1,1 30,0 a 15,15 0 1,1 -30,0 z " horiz-adv-x="600" unicode="⠐"/>
<glyph d="M 60 560 m -60, 0 a 60,60 0 1,1 120,0 a 60,60 0 1,1 -120,0 z M 60 310 m -15, 0 a 15,15 0 1,1 30,0 a 15,15 0 1,1 -30,0 z M 60 60 m -15, 0 a 15,15 0 1,1 30,0 a 15,15 0 1,1 -30,0 z M 310 560 m -15, 0 a 15,15 0 1,1 30,0 a 15,15 0 1,1 -30,0 z M 310 310 m -60, 0 a 60,60 0 1,1 120,0 a 60,60 0 1,1 -120,0 z M 310 60 m -15, 0 a 15,15 0 1,1 30,0 a 15,15 0 1,1 -30,0 z " horiz-adv-x="600" unicode="⠑"/>
<glyph d="M 60 560 m -15, 0 a 15,15 0 1,1 30,0 a 15,15 0 1,1 -30,0 z M 60 310 m -60, 0 a 60,60 0 1,1 120,0 a 60,60 0 1,1 -120,0 z M 60 60 m -15, 0 a 15,15 0 1,1 30,0 a 15,15 0 1,1 -30,0 z M 310 560 m -15, 0 a 15,15 0 1,1 30,0 a 15,15 0 1,1 -30,0 z M 310 310 m -60, 0 a 60,60 0 1,1 120,0 a 60,60 0 1,1 -120,0 z M 310 60 m -15, 0 a 15,15 0 1,1 30,0 a 15,15 0 1,1 -30,0 z " horiz-adv-x="600" unicode="⠒"/>
<glyph d="M 60 560 m -60, 0 a 60,60 0 1,1 120,0 a 60,60 0 1,1 -120,0 z M 60 310 m -60, 0 a 60,60 0 1,1 120,0 a 60,60 0 1,1 -120,0 z M 60 60 m -15, 0 a 15,15 0 1,1 30,0 a 15,15 0 1,1 -30,0 z M 310 560 m -15, 0 a 15,15 0 1,1 30,0 a 15,15 0 1,1 -30,0 z M 310 310 m -60, 0 a 60,60 0 1,1 120,0 a 60,60 0 1,1 -120,0 z M 310 60 m -15, 0 a 15,15 0 1,1 30,0 a 15,15 0 1,1 -30,0 z " horiz-adv-x="600" unicode="⠓"/>
<glyph d="M 60 560 m -15, 0 a 15,15 0 1,1 30,0 a 15,15 0 1,1 -30,0 z M 60 310 m -15, 0 a 15,15 0 1,1 30,0 a 15,15 0 1,1 -30,0 z M 60 60 m -60, 0 a 60,60 0 1,1 120,0 a 60,60 0 1,1 -120,0 z M 310 560 m -15, 0 a 15,15 0 1,1 30,0 a 15,15 0 1,1 -30,0 z M 310 310 m -60, 0 a 60,60 0 1,1 120,0 a 60,60 0 1,1 -120,0 z M 310 60 m -15, 0 a 15,15 0 1,1 30,0 a 15,15 0 1,1 -30,0 z " horiz-adv-x="600" unicode="⠔"/>
<glyph d="M 60 560 m -60, 0 a 60,60 0 1,1 120,0 a 60,60 0 1,1 -120,0 z M 60 310 m -15, 0 a 15,15 0 1,1 30,0 a 15,15 0 1,1 -30,0 z M 60 60 m -60, 0 a 60,60 0 1,1 120,0 a 60,60 0 1,1 -120,0 z M 310 560 m -15, 0 a 15,15 0 1,1 30,0 a 15,15 0 1,1 -30,0 z M 310 310 m -60, 0 a 60,60 0 1,1 120,0 a 60,60 0 1,1 -120,0 z M 310 60 m -15, 0 a 15,15 0 1,1 30,0 a 15,15 0 1,1 -30,0 z " horiz-adv-x="600" unicode="⠕"/>
<glyph d="M 60 560 m -15, 0 a 15,15 0 1,1 30,0 a 15,15 0 1,1 -30,0 z M 60 310 m -60, 0 a 60,60 0 1,1 120,0 a 60,60 0 1,1 -120,0 z M 60 60 m -60, 0 a 60,60 0 1,1 120,0 a 60,60 0 1,1 -120,0 z M 310 560 m -15, 0 a 15,15 0 1,1 30,0 a 15,15 0 1,1 -30,0 z M 310 310 m -60, 0 a 60,60 0 1,1 120,0 a 60,60 0 1,1 -120,0 z M 310 60 m -15, 0 a 15,15 0 1,1 30,0 a 15,15 0 1,1 -30,0 z " horiz-adv-x="600" unicode="⠖"/>
<glyph d="M 60 560 m -60, 0 a 60,60 0 1,1 120,0 a 60,60 0 1,1 -120,0 z M 60 310 m -60, 0 a 60,60 0 1,1 120,0 a 60,60 0 1,1 -120,0 z M 60 60 m -60, 0 a 60,60 0 1,1 120,0 a 60,60 0 1,1 -120,0 z M 310 560 m -15, 0 a 15,15 0 1,1 30,0 a 15,15 0 1,1 -30,0 z M 310 310 m -60, 0 a 60,60 0 1,1 120,0 a 60,60 0 1,1 -120,0 z M 310 60 m -15, 0 a 15,15 0 1,1 30,0 a 15,15 0 1,1 -30,0 z " horiz-adv-x="600" unicode="⠗"/>
<glyph d="M 60 560 m -15, 0 a 15,15 0 1,1 30,0 a 15,15 0 1,1 -30,0 z M 60 310 m -15, 0 a 15,15 0 1,1 30,0 a 15,15 0 1,1 -30,0 z M 60 60 m -15, 0 a 15,15 0 1,1 30,0 a 15,15 0 1,1 -30,0 z M 310 560 m -60, 0 a 60,60 0 1,1 120,0 a 60,60 0 1,1 -120,0 z M 310 310 m -60, 0 a 60,60 0 1,1 120,0 a 60,60 0 1,1 -120,0 z M 310 60 m -15, 0 a 15,15 0 1,1 30,0 a 15,15 0 1,1 -30,0 z " horiz-adv-x="600" unicode="⠘"/>
<glyph d="M 60 560 m -60, 0 a 60,60 0 1,1 120,0 a 60,60 0 1,1 -120,0 z M 60 310 m -15, 0 a 15,15 0 1,1 30,0 a 15,15 0 1,1 -30,0 z M 60 60 m -15, 0 a 15,15 0 1,1 30,0 a 15,15 0 1,1 -30,0 z M 310 560 m -60, 0 a 60,60 0 1,1 120,0 a 60,60 0 1,1 -120,0 z M 310 310 m -60, 0 a 60,60 0 1,1 120,0 a 60,60 0 1,1 -120,0 z M 310 60 m -15, 0 a 15,15 0 1,1 30,0 a 15,15 0 1,1 -30,0 z " horiz-adv-x="600" unicode="⠙"/>
<glyph d="M 60 560 m -15, 0 a 15,15 0 1,1 30,0 a 15,15 0 1,1 -30,0 z M 60 310 m -60, 0 a 60,60 0 1,1 120,0 a 60,60 0 1,1 -120,0 z M 60 60 m -15, 0 a 15,15 0 1,1 30,0 a 15,15 0 1,1 -30,0 z M 310 560 m -60, 0 a 60,60 0 1,1 120,0 a 60,60 0 1,1 -120,0 z M 310 310 m -60, 0 a 60,60 0 1,1 120,0 a 60,60 0 1,1 -120,0 z M 310 60 m -15, 0 a 15,15 0 1,1 30,0 a 15,15 0 1,1 -30,0 z " horiz-adv-x="600" unicode="⠚"/>
<glyph d="M 60 560 m -60, 0 a 60,60 0 1,1 120,0 a 60,60 0 1,1 -120,0 z M 60 310 m -60, 0 a 60,60 0 1,1 120,0 a 60,60 0 1,1 -120,0 z M 60 60 m -15, 0 a 15,15 0 1,1 30,0 a 15,15 0 1,1 -30,0 z M 310 560 m -60, 0 a 60,60 0 1,1 120,0 a 60,60 0 1,1 -120,0 z M 310 310 m -60, 0 a 60,60 0 1,1 120,0 a 60,60 0 1,1 -120,0 z M 310 60 m -15, 0 a 15,15 0 1,1 30,0 a 15,15 0 1,1 -30,0 z " horiz-adv-x="600" unicode="⠛"/>
<glyph d="M 60 560 m -15, 0 a 15,15 0 1,1 30,0 a 15,15 0 1,1 -30,0 z M 60 310 m -15, 0 a 15,15 0 1,1 30,0 a 15,15 0 1,1 -30,0 z M 60 60 m -60, 0 a 60,60 0 1,1 120,0 a 60,60 0 1,1 -120,0 z M 310 560 m -60, 0 a 60,60 0 1,1 120,0 a 60,60 0 1,1 -120,0 z M 310 310 m -60, 0 a 60,60 0 1,1 120,0 a 60,60 0 1,1 -120,0 z M 310 60 m -15, 0 a 15,15 0 1,1 30,0 a 15,15 0 1,1 -30,0 z " horiz-adv-x="600" unicode="⠜"/>
<glyph d="M 60 560 m -60, 0 a 60,60 0 1,1 120,0 a 60,60 0 1,1 -120,0 z M 60 310 m -15, 0 a 15,15 0 1,1 30,0 a 15,15 0 1,1 -30,0 z M 60 60 m -60, 0 a 60,60 0 1,1 120,0 a 60,60 0 1,1 -120,0 z M 310 560 m -60, 0 a 60,60 0 1,1 120,0 a 60,60 0 1,1 -120,0 z M 310 310 m -60, 0 a 60,60 0 1,1 120,0 a 60,60 0 1,1 -120,0 z M 310 60 m -15, 0 a 15,15 0 1,1 30,0 a 15,15 0 1,1 -30,0 z " horiz-adv-x="600" unicode="⠝"/>
<glyph d="M 60 560 m -15, 0 a 15,15 0 1,1 30,0 a 15,15 0 1,1 -30,0 z M 60 310 m -60, 0 a 60,60 0 1,1 120,0 a 60,60 0 1,1 -120,0 z M 60 60 m -60, 0 a 60,60 0 1,1 120,0 a 60,60 0 1,1 -120,0 z M 310 560 m -60, 0 a 60,60 0 1,1 120,0 a 60,60 0 1,1 -120,0 z M 310 310 m -60, 0 a 60,60 0 1,1 120,0 a 60,60 0 1,1 -120,0 z M 310 60 m -15, 0 a 15,15 0 1,1 30,0 a 15,15 0 1,1 -30,0 z " horiz-adv-x="600" unicode="⠞"/>
<glyph d="M 60 560 m -60, 0 a 60,60 0 1,1 120,0 a 60,60 0 1,1 -120,0 z M 60 310 m -60, 0 a 60,60 0 1,1 120,0 a 60,60 0 1,1 -120,0 z M 60 60 m -60, 0 a 60,60 0 1,1 120,0 a 60,60 0 1,1 -120,0 z M 310 560 m -60, 0 a 60,60 0 1,1 120,0 a 60,60 0 1,1 -120,0 z M 310 310 m -60, 0 a 60,60 0 1,1 120,0 a 60,60 0 1,1 -120,0 z M 310 60 m -15, 0 a 15,15 0 1,1 30,0 a 15,15 0 1,1 -30,0 z " horiz-adv-x="600" unicode="⠟"/>
<glyph d="M 60 560 m -15, 0 a 15,15 0 1,1 30,0 a 15,15 0 1,1 -30,0 z M 60 310 m -15, 0 a 15,15 0 1,1 30,0 a 15,15 0 1,1 -30,0 z M 60 60 m -15, 0 a 15,15 0 1,1 30,0 a 15,15 0 1,1 -30,0 z M 310 560 m -15, 0 a 15,15 0 1,1 30,0 a 15,15 0 1,1 -30,0 z M 310 310 m -15, 0 a 15,15 0 1,1 30,0 a 15,15 0 1,1 -30,0 z M 310 60 m -60, 0 a 60,60 0 1,1 120,0 a 60,60 0 1,1 -120,0 z " horiz-adv-x="600" unicode="⠠"/>
<glyph d="M 60 560 m -60, 0 a 60,60 0 1,1 120,0 a 60,60 0 1,1 -120,0 z M 60 310 m -15, 0 a 15,15 0 1,1 30,0 a 15,15 0 1,1 -30,0 z M 60 60 m -15, 0 a 15,15 0 1,1 30,0 a 15,15 0 1,1 -30,0 z M 310 560 m -15, 0 a 15,15 0 1,1 30,0 a 15,15 0 1,1 -30,0 z M 310 310 m -15, 0 a 15,15 0 1,1 30,0 a 15,15 0 1,1 -30,0 z M 310 60 m -60, 0 a 60,60 0 1,1 120,0 a 60,60 0 1,1 -120,0 z " horiz-adv-x="600" unicode="⠡"/>
<glyph d="M 60 560 m -15, 0 a 15,15 0 1,1 30,0 a 15,15 0 1,1 -30,0 z M 60 310 m -60, 0 a 60,60 0 1,1 120,0 a 60,60 0 1,1 -120,0 z M 60 60 m -15, 0 a 15,15 0 1,1 30,0 a 15,15 0 1,1 -30,0 z M 310 560 m -15, 0 a 15,15 0 1,1 30,0 a 15,15 0 1,1 -30,0 z M 310 310 m -15, 0 a 15,15 0 1,1 30,0 a 15,15 0 1,1 -30,0 z M 310 60 m -60, 0 a 60,60 0 1,1 120,0 a 60,60 0 1,1 -120,0 z " horiz-adv-x="600" unicode="⠢"/>
<glyph d="M 60 560 m -60, 0 a 60,60 0 1,1 120,0 a 60,60 0 1,1 -120,0 z M 60 310 m -60, 0 a 60,60 0 1,1 120,0 a 60,60 0 1,1 -120,0 z M 60 60 m -15, 0 a 15,15 0 1,1 30,0 a 15,15 0 1,1 -30,0 z M 310 560 m -15, 0 a 15,15 0 1,1 30,0 a 15,15 0 1,1 -30,0 z M 310 310 m -15, 0 a 15,15 0 1,1 30,0 a 15,15 0 1,1 -30,0 z M 310 60 m -60, 0 a 60,60 0 1,1 120,0 a 60,60 0 1,1 -120,0 z " horiz-adv-x="600" unicode="⠣"/>
<glyph d="M 60 560 m -15, 0 a 15,15 0 1,1 30,0 a 15,15 0 1,1 -30,0 z M 60 310 m -15, 0 a 15,15 0 1,1 30,0 a 15,15 0 1,1 -30,0 z M 60 60 m -60, 0 a 60,60 0 1,1 120,0 a 60,60 0 1,1 -120,0 z M 310 560 m -15, 0 a 15,15 0 1,1 30,0 a 15,15 0 1,1 -30,0 z M 310 310 m -15, 0 a 15,15 0 1,1 30,0 a 15,15 0 1,1 -30,0 z M 310 60 m -60, 0 a 60,60 0 1,1 120,0 a 60,60 0 1,1 -120,0 z " horiz-adv-x="600" unicode="⠤"/>
<glyph d="M 60 560 m -60, 0 a 60,60 0 1,1 120,0 a 60,60 0 1,1 -120,0 z M 60 310 m -15, 0 a 15,15 0 1,1 30,0 a 15,15 0 1,1 -30,0 z M 60 60 m -60, 0 a 60,60 0 1,1 120,0 a 60,60 0 1,1 -120,0 z M 310 560 m -15, 0 a 15,15 0 1,1 30,0 a 15,15 0 1,1 -30,0 z M 310 310 m -15, 0 a 15,15 0 1,1 30,0 a 15,15 0 1,1 -30,0 z M 310 60 m -60, 0 a 60,60 0 1,1 120,0 a 60,60 0 1,1 -120,0 z " horiz-adv-x="600" unicode="⠥"/>
<glyph d="M 60 560 m -15, 0 a 15,15 0 1,1 30,0 a 15,15 0 1,1 -30,0 z M 60 310 m -60, 0 a 60,60 0 1,1 120,0 a 60,60 0 1,1 -120,0 z M 60 60 m -60, 0 a 60,60 0 1,1 120,0 a 60,60 0 1,1 -120,0 z M 310 560 m -15, 0 a 15,15 0 1,1 30,0 a 15,15 0 1,1 -30,0 z M 310 310 m -15, 0 a 15,15 0 1,1 30,0 a 15,15 0 1,1 -30,0 z M 310 60 m -60, 0 a 60,60 0 1,1 120,0 a 60,60 0 1,1 -120,0 z " horiz-adv-x="600" unicode="⠦"/>
<glyph d="M 60 560 m -60, 0 a 60,60 0 1,1 120,0 a 60,60 0 1,1 -120,0 z M 60 310 m -60, 0 a 60,60 0 1,1 120,0 a 60,60 0 1,1 -120,0 z M 60 60 m -60, 0 a 60,60 0 1,1 120,0 a 60,60 0 1,1 -120,0 z M 310 560 m -15, 0 a 15,15 0 1,1 30,0 a 15,15 0 1,1 -30,0 z M 310 310 m -15, 0 a 15,15 0 1,1 30,0 a 15,15 0 1,1 -30,0 z M 310 60 m -60, 0 a 60,60 0 1,1 120,0 a 60,60 0 1,1 -120,0 z " horiz-adv-x="600" unicode="⠧"/>
<glyph d="M 60 560 m -15, 0 a 15,15 0 1,1 30,0 a 15,15 0 1,1 -30,0 z M 60 310 m -15, 0 a 15,15 0 1,1 30,0 a 15,15 0 1,1 -30,0 z M 60 60 m -15, 0 a 15,15 0 1,1 30,0 a 15,15 0 1,1 -30,0 z M 310 560 m -60, 0 a 60,60 0 1,1 120,0 a 60,60 0 1,1 -120,0 z M 310 310 m -15, 0 a 15,15 0 1,1 30,0 a 15,15 0 1,1 -30,0 z M 310 60 m -60, 0 a 60,60 0 1,1 120,0 a 60,60 0 1,1 -120,0 z " horiz-adv-x="600" unicode="⠨"/>
<glyph d="M 60 560 m -60, 0 a 60,60 0 1,1 120,0 a 60,60 0 1,1 -120,0 z M 60 310 m -15, 0 a 15,15 0 1,1 30,0 a 15,15 0 1,1 -30,0 z M 60 60 m -15, 0 a 15,15 0 1,1 30,0 a 15,15 0 1,1 -30,0 z M 310 560 m -60, 0 a 60,60 0 1,1 120,0 a 60,60 0 1,1 -120,0 z M 310 310 m -15, 0 a 15,15 0 1,1 30,0 a 15,15 0 1,1 -30,0 z M 310 60 m -60, 0 a 60,60 0 1,1 120,0 a 60,60 0 1,1 -120,0 z " horiz-adv-x="600" unicode="⠩"/>
<glyph d="M 60 560 m -15, 0 a 15,15 0 1,1 30,0 a 15,15 0 1,1 -30,0 z M 60 310 m -60, 0 a 60,60 0 1,1 120,0 a 60,60 0 1,1 -120,0 z M 60 60 m -15, 0 a 15,15 0 1,1 30,0 a 15,15 0 1,1 -30,0 z M 310 560 m -60, 0 a 60,60 0 1,1 120,0 a 60,60 0 1,1 -120,0 z M 310 310 m -15, 0 a 15,15 0 1,1 30,0 a 15,15 0 1,1 -30,0 z M 310 60 m -60, 0 a 60,60 0 1,1 120,0 a 60,60 0 1,1 -120,0 z " horiz-adv-x="600" unicode="⠪"/>
<glyph d="M 60 560 m -60, 0 a 60,60 0 1,1 120,0 a 60,60 0 1,1 -120,0 z M 60 310 m -60, 0 a 60,60 0 1,1 120,0 a 60,60 0 1,1 -120,0 z M 60 60 m -15, 0 a 15,15 0 1,1 30,0 a 15,15 0 1,1 -30,0 z M 310 560 m -60, 0 a 60,60 0 1,1 120,0 a 60,60 0 1,1 -120,0 z M 310 310 m -15, 0 a 15,15 0 1,1 30,0 a 15,15 0 1,1 -30,0 z M 310 60 m -60, 0 a 60,60 0 1,1 120,0 a 60,60 0 1,1 -120,0 z " horiz-adv-x="600" unicode="⠫"/>
<glyph d="M 60 560 m -15, 0 a 15,15 0 1,1 30,0 a 15,15 0 1,1 -30,0 z M 60 310 m -15, 0 a 15,15 0 1,1 30,0 a 15,15 0 1,1 -30,0 z M 60 60 m -60, 0 a 60,60 0 1,1 120,0 a 60,60 0 1,1 -120,0 z M 310 560 m -60, 0 a 60,60 0 1,1 120,0 a 60,60 0 1,1 -120,0 z M 310 310 m -15, 0 a 15,15 0 1,1 30,0 a 15,15 0 1,1 -30,0 z M 310 60 m -60, 0 a 60,60 0 1,1 120,0 a 60,60 0 1,1 -120,0 z " horiz-adv-x="600" unicode="⠬"/>
<glyph d="M 60 560 m -60, 0 a 60,60 0 1,1 120,0 a 60,60 0 1,1 -120,0 z M 60 310 m -15, 0 a 15,15 0 1,1 30,0 a 15,15 0 1,1 -30,0 z M 60 60 m -60, 0 a 60,60 0 1,1 120,0 a 60,60 0 1,1 -120,0 z M 310 560 m -60, 0 a 60,60 0 1,1 120,0 a 60,60 0 1,1 -120,0 z M 310 310 m -15, 0 a 15,15 0 1,1 30,0 a 15,15 0 1,1 -30,0 z M 310 60 m -60, 0 a 60,60 0 1,1 120,0 a 60,60 0 1,1 -120,0 z " horiz-adv-x="600" unicode="⠭"/>
<glyph d="M 60 560 m -15, 0 a 15,15 0 1,1 30,0 a 15,15 0 1,1 -30,0 z M 60 310 m -60, 0 a 60,60 0 1,1 120,0 a 60,60 0 1,1 -120,0 z M 60 60 m -60, 0 a 60,60 0 1,1 120,0 a 60,60 0 1,1 -120,0 z M 310 560 m -60, 0 a 60,60 0 1,1 120,0 a 60,60 0 1,1 -120,0 z M 310 310 m -15, 0 a 15,15 0 1,1 30,0 a 15,15 0 1,1 -30,0 z M 310 60 m -60, 0 a 60,60 0 1,1 120,0 a 60,60 0 1,1 -120,0 z " horiz-adv-x="600" unicode="⠮"/>
<glyph d="M 60 560 m -60, 0 a 60,60 0 1,1 120,0 a 60,60 0 1,1 -120,0 z M 60 310 m -60, 0 a 60,60 0 1,1 120,0 a 60,60 0 1,1 -120,0 z M 60 60 m -60, 0 a 60,60 0 1,1 120,0 a 60,60 0 1,1 -120,0 z M 310 560 m -60, 0 a 60,60 0 1,1 120,0 a 60,60 0 1,1 -120,0 z M 310 310 m -15, 0 a 15,15 0 1,1 30,0 a 15,15 0 1,1 -30,0 z M 310 60 m -60, 0 a 60,60 0 1,1 120,0 a 60,60 0 1,1 -120,0 z " horiz-adv-x="600" unicode="⠯"/>
<glyph d="M 60 560 m -15, 0 a 15,15 0 1,1 30,0 a 15,15 0 1,1 -30,0 z M 60 310 m -15, 0 a 15,15 0 1,1 30,0 a 15,15 0 1,1 -30,0 z M 60 60 m -15, 0 a 15,15 0 1,1 30,0 a 15,15 0 1,1 -30,0 z M 310 560 m -15, 0 a 15,15 0 1,1 30,0 a 15,15 0 1,1 -30,0 z M 310 310 m -60, 0 a 60,60 0 1,1 120,0 a 60,60 0 1,1 -120,0 z M 310 60 m -60, 0 a 60,60 0 1,1 120,0 a 60,60 0 1,1 -120,0 z " horiz-adv-x="600" unicode="⠰"/>
<glyph d="M 60 560 m -60, 0 a 60,60 0 1,1 120,0 a 60,60 0 1,1 -120,0 z M 60 310 m -15, 0 a 15,15 0 1,1 30,0 a 15,15 0 1,1 -30,0 z M 60 60 m -15, 0 a 15,15 0 1,1 30,0 a 15,15 0 1,1 -30,0 z M 310 560 m -15, 0 a 15,15 0 1,1 30,0 a 15,15 0 1,1 -30,0 z M 310 310 m -60, 0 a 60,60 0 1,1 120,0 a 60,60 0 1,1 -120,0 z M 310 60 m -60, 0 a 60,60 0 1,1 120,0 a 60,60 0 1,1 -120,0 z " horiz-adv-x="600" unicode="⠱"/>
<glyph d="M 60 560 m -15, 0 a 15,15 0 1,1 30,0 a 15,15 0 1,1 -30,0 z M 60 310 m -60, 0 a 60,60 0 1,1 120,0 a 60,60 0 1,1 -120,0 z M 60 60 m -15, 0 a 15,15 0 1,1 30,0 a 15,15 0 1,1 -30,0 z M 310 560 m -15, 0 a 15,15 0 1,1 30,0 a 15,15 0 1,1 -30,0 z M 310 310 m -60, 0 a 60,60 0 1,1 120,0 a 60,60 0 1,1 -120,0 z M 310 60 m -60, 0 a 60,60 0 1,1 120,0 a 60,60 0 1,1 -120,0 z " horiz-adv-x="600" unicode="⠲"/>
<glyph d="M 60 560 m -60, 0 a 60,60 0 1,1 120,0 a 60,60 0 1,1 -120,0 z M 60 310 m -60, 0 a 60,60 0 1,1 120,0 a 60,60 0 1,1 -120,0 z M 60 60 m -15, 0 a 15,15 0 1,1 30,0 a 15,15 0 1,1 -30,0 z M 310 560 m -15, 0 a 15,15 0 1,1 30,0 a 15,15 0 1,1 -30,0 z M 310 310 m -60, 0 a 60,60 0 1,1 120,0 a 60,60 0 1,1 -120,0 z M 310 60 m -60, 0 a 60,60 0 1,1 120,0 a 60,60 0 1,1 -120,0 z " horiz-adv-x="600" unicode="⠳"/>
<glyph d="M 60 560 m -15, 0 a 15,15 0 1,1 30,0 a 15,15 0 1,1 -30,0 z M 60 310 m -15, 0 a 15,15 0 1,1 30,0 a 15,15 0 1,1 -30,0 z M 60 60 m -60, 0 a 60,60 0 1,1 120,0 a 60,60 0 1,1 -120,0 z M 310 560 m -15, 0 a 15,15 0 1,1 30,0 a 15,15 0 1,1 -30,0 z M 310 310 m -60, 0 a 60,60 0 1,1 120,0 a 60,60 0 1,1 -120,0 z M 310 60 m -60, 0 a 60,60 0 1,1 120,0 a 60,60 0 1,1 -120,0 z " horiz-adv-x="600" unicode="⠴"/>
<glyph d="M 60 560 m -60, 0 a 60,60 0 1,1 120,0 a 60,60 0 1,1 -120,0 z M 60 310 m -15, 0 a 15,15 0 1,1 30,0 a 15,15 0 1,1 -30,0 z M 60 60 m -60, 0 a 60,60 0 1,1 120,0 a 60,60 0 1,1 -120,0 z M 310 560 m -15, 0 a 15,15 0 1,1 30,0 a 15,15 0 1,1 -30,0 z M 310 310 m -60, 0 a 60,60 0 1,1 120,0 a 60,60 0 1,1 -120,0 z M 310 60 m -60, 0 a 60,60 0 1,1 120,0 a 60,60 0 1,1 -120,0 z " horiz-adv-x="600" unicode="⠵"/>
<glyph d="M 60 560 m -15, 0 a 15,15 0 1,1 30,0 a 15,15 0 1,1 -30,0 z M 60 310 m -60, 0 a 60,60 0 1,1 120,0 a 60,60 0 1,1 -120,0 z M 60 60 m -60, 0 a 60,60 0 1,1 120,0 a 60,60 0 1,1 -120,0 z M 310 560 m -15, 0 a 15,15 0 1,1 30,0 a 15,15 0 1,1 -30,0 z M 310 310 m -60, 0 a 60,60 0 1,1 120,0 a 60,60 0 1,1 -120,0 z M 310 60 m -60, 0 a 60,60 0 1,1 120,0 a 60,60 0 1,1 -120,0 z " horiz-adv-x="600" unicode="⠶"/>
<glyph d="M 60 560 m -60, 0 a 60,60 0 1,1 120,0 a 60,60 0 1,1 -120,0 z M 60 310 m -60, 0 a 60,60 0 1,1 120,0 a 60,60 0 1,1 -120,0 z M 60 60 m -60, 0 a 60,60 0 1,1 120,0 a 60,60 0 1,1 -120,0 z M 310 560 m -15, 0 a 15,15 0 1,1 30,0 a 15,15 0 1,1 -30,0 z M 310 310 m -60, 0 a 60,60 0 1,1 120,0 a 60,60 0 1,1 -120,0 z M 310 60 m -60, 0 a 60,60 0 1,1 120,0 a 60,60 0 1,1 -120,0 z " horiz-adv-x="600" unicode="⠷"/>
<glyph d="M 60 560 m -15, 0 a 15,15 0 1,1 30,0 a 15,15 0 1,1 -30,0 z M 60 310 m -15, 0 a 15,15 0 1,1 30,0 a 15,15 0 1,1 -30,0 z M 60 60 m -15, 0 a 15,15 0 1,1 30,0 a 15,15 0 1,1 -30,0 z M 310 560 m -60, 0 a 60,60 0 1,1 120,0 a 60,60 0 1,1 -120,0 z M 310 310 m -60, 0 a 60,60 0 1,1 120,0 a 60,60 0 1,1 -120,0 z M 310 60 m -60, 0 a 60,60 0 1,1 120,0 a 60,60 0 1,1 -120,0 z " horiz-adv-x="600" unicode="⠸"/>
<glyph d="M 60 560 m -60, 0 a 60,60 0 1,1 120,0 a 60,60 0 1,1 -120,0 z M 60 310 m -15, 0 a 15,15 0 1,1 30,0 a 15,15 0 1,1 -30,0 z M 60 60 m -15, 0 a 15,15 0 1,1 30,0 a 15,15 0 1,1 -30,0 z M 310 560 m -60, 0 a 60,60 0 1,1 120,0 a 60,60 0 1,1 -120,0 z M 310 310 m -60, 0 a 60,60 0 1,1 120,0 a 60,60 0 1,1 -120,0 z M 310 60 m -60, 0 a 60,60 0 1,1 120,0 a 60,60 0 1,1 -120,0 z " horiz-adv-x="600" unicode="⠹"/>
<glyph d="M 60 560 m -15, 0 a 15,15 0 1,1 30,0 a 15,15 0 1,1 -30,0 z M 60 310 m -60, 0 a 60,60 0 1,1 120,0 a 60,60 0 1,1 -120,0 z M 60 60 m -15, 0 a 15,15 0 1,1 30,0 a 15,15 0 1,1 -30,0 z M 310 560 m -60, 0 a 60,60 0 1,1 120,0 a 60,60 0 1,1 -120,0 z M 310 310 m -60, 0 a 60,60 0 1,1 120,0 a 60,60 0 1,1 -120,0 z M 310 60 m -60, 0 a 60,60 0 1,1 120,0 a 60,60 0 1,1 -120,0 z " horiz-adv-x="600" unicode="⠺"/>
<glyph d="M 60 560 m -60, 0 a 60,60 0 1,1 120,0 a 60,60 0 1,1 -120,0 z M 60 310 m -60, 0 a 60,60 0 1,1 120,0 a 60,60 0 1,1 -120,0 z M 60 60 m -15, 0 a 15,15 0 1,1 30,0 a 15,15 0 1,1 -30,0 z M 310 560 m -60, 0 a 60,60 0 1,1 120,0 a 60,60 0 1,1 -120,0 z M 310 310 m -60, 0 a 60,60 0 1,1 120,0 a 60,60 0 1,1 -120,0 z M 310 60 m -60, 0 a 60,60 0 1,1 120,0 a 60,60 0 1,1 -120,0 z " horiz-adv-x="600" unicode="⠻"/>
<glyph d="M 60 560 m -15, 0 a 15,15 0 1,1 30,0 a 15,15 0 1,1 -30,0 z M 60 310 m -15, 0 a 15,15 0 1,1 30,0 a 15,15 0 1,1 -30,0 z M 60 60 m -60, 0 a 60,60 0 1,1 120,0 a 60,60 0 1,1 -120,0 z M 310 560 m -60, 0 a 60,60 0 1,1 120,0 a 60,60 0 1,1 -120,0 z M 310 310 m -60, 0 a 60,60 0 1,1 120,0 a 60,60 0 1,1 -120,0 z M 310 60 m -60, 0 a 60,60 0 1,1 120,0 a 60,60 0 1,1 -120,0 z " horiz-adv-x="600" unicode="⠼"/>
<glyph d="M 60 560 m -60, 0 a 60,60 0 1,1 120,0 a 60,60 0 1,1 -120,0 z M 60 310 m -15, 0 a 15,15 0 1,1 30,0 a 15,15 0 1,1 -30,0 z M 60 60 m -60, 0 a 60,60 0 1,1 120,0 a 60,60 0 1,1 -120,0 z M 310 560 m -60, 0 a 60,60 0 1,1 120,0 a 60,60 0 1,1 -120,0 z M 310 310 m -60, 0 a 60,60 0 1,1 120,0 a 60,60 0 1,1 -120,0 z M 310 60 m -60, 0 a 60,60 0 1,1 120,0 a 60,60 0 1,1 -120,0 z " horiz-adv-x="600" unicode="⠽"/>
<glyph d="M 60 560 m -15, 0 a 15,15 0 1,1 30,0 a 15,15 0 1,1 -30,0 z M 60 310 m -60, 0 a 60,60 0 1,1 120,0 a 60,60 0 1,1 -120,0 z M 60 60 m -60, 0 a 60,60 0 1,1 120,0 a 60,60 0 1,1 -120,0 z M 310 560 m -60, 0 a 60,60 0 1,1 120,0 a 60,60 0 1,1 -120,0 z M 310 310 m -60, 0 a 60,60 0 1,1 120,0 a 60,60 0 1,1 -120,0 z M 310 60 m -60, 0 a 60,60 0 1,1 120,0 a 60,60 0 1,1 -120,0 z " horiz-adv-x="600" unicode="⠾"/>
<glyph d="M 60 560 m -60, 0 a 60,60 0 1,1 120,0 a 60,60 0 1,1 -120,0 z M 60 310 m -60, 0 a 60,60 0 1,1 120,0 a 60,60 0 1,1 -120,0 z M 60 60 m -60, 0 a 60,60 0 1,1 120,0 a 60,60 0 1,1 -120,0 z M 310 560 m -60, 0 a 60,60 0 1,1 120,0 a 60,60 0 1,1 -120,0 z M 310 310 m -60, 0 a 60,60 0 1,1 120,0 a 60,60 0 1,1 -120,0 z M 310 60 m -60, 0 a 60,60 0 1,1 120,0 a 60,60 0 1,1 -120,0 z " horiz-adv-x="600" unicode="⠿"/>
</font>
</defs>
</svg>
